<?xml version="1.0" encoding="UTF-8"?>
<svg width="254px" height="50px" viewBox="0 0 254 50" version="1.1" xmlns="http://www.w3.org/2000/svg" xmlns:xlink="http://www.w3.org/1999/xlink">
    <!-- Generator: Sketch 49.3 (51167) - http://www.bohemiancoding.com/sketch -->
    <title>todojustics</title>
    <desc>Created with Sketch.</desc>
    <defs></defs>
    <g id="Page-1" stroke="none" stroke-width="1" fill="none" fill-rule="evenodd">
        <g id="todojustics" fill="#2C5F2D" fill-rule="nonzero">
            <g id="todostoragegreen">
                <path d="M42.9203879,8.49623867 C43.3286553,8.08684304 44.146466,7.67616805 45.372544,7.67616805 C46.1903547,7.67616805 47.0068895,8.08684304 47.4164328,8.9056343 C48.2342434,9.31502993 48.2342434,10.1351006 48.2342434,11.7739624 L48.2342434,38.8247787 C48.2342434,40.0542449 48.2342434,41.2837112 47.4164328,41.6931068 C47.0081653,42.5131774 46.1903547,42.5131774 44.9642767,42.5131774 C44.146466,42.5131774 43.3299311,42.5131774 42.9203879,41.6931068 C42.1025772,41.2837112 42.1025772,40.4636405 42.1025772,39.2341743 L42.1025772,11.3645668 C42.103853,10.1351006 42.103853,9.31502993 42.9203879,8.49623867 Z M58.3643786,5.73793562 C57.1383005,4.09779438 55.5039551,2.4589325 53.4600663,1.63886188 C51.4161776,0.409395629 48.1462107,0 44.4679765,0 C41.1980097,0 37.9280428,0.820070621 35.8841541,2.04953687 C33.4319979,3.27900312 31.7963767,4.91914436 30.5702986,6.96740187 C29.7524879,8.60754312 29.3442205,11.0664757 29.3442205,13.5241288 L29.3442205,37.2972212 C29.3442205,38.9360832 29.7537637,40.1655493 29.7537637,41.3950157 C30.5715744,43.0338775 31.3881092,44.6727393 32.2059199,45.49281 C33.4319979,47.1316718 35.0676193,48.3611382 37.1102323,48.7705337 C39.1541209,49.5906043 41.6062772,50 44.4679765,50 C48.1462107,50 51.0066344,49.5906043 53.4600663,48.3611382 C55.9122225,47.1316718 57.546568,45.49281 58.3643786,43.4432732 C59.5904568,41.3937362 60,39.3454787 60,36.8865462 L60,13.9348037 C59.9987242,10.246405 59.1809135,7.78747249 58.3643786,5.73793562 Z M8.58509824,6.96868124 L0,6.96868124 L0,0 L29.021434,0 L29.021434,6.96868124 L20.8471549,6.96868124 L20.8471549,47.5423468 L8.58509824,47.5423468 L8.58509824,6.96868124 Z" id="Shape"></path>
                <rect id="Rectangle" x="63" y="21" width="11" height="8"></rect>
                <path d="M124.875166,8.49645608 C125.284545,8.08704998 126.104582,7.67636448 127.333998,7.67636448 C128.154036,7.67636448 128.972793,8.08577058 129.383452,8.49645608 C129.792831,9.31654768 130.203488,10.1353599 130.203488,11.3648576 L130.203488,38.8270515 C130.203488,40.0565492 129.79411,40.8766409 129.383452,41.695453 C128.972793,42.1048591 128.154036,42.5155447 126.92462,42.5155447 C126.104582,42.5155447 125.285825,42.1061386 124.875166,41.695453 C124.055129,41.286047 124.055129,40.0565492 124.055129,38.8270515 L124.055129,10.9554515 C124.056409,9.72595379 124.056409,8.90714158 124.875166,8.49645608 Z M140.361203,5.73680305 C139.131788,4.09789924 137.491713,2.45899542 135.443539,1.63890382 C132.984707,0.409406105 130.115216,0 126.426968,0 C122.73872,0 119.870508,0.409406105 117.819776,1.63890382 C115.360943,2.86840152 113.722149,4.91671145 112.491454,6.96630076 C111.671416,8.60520458 111.262037,10.6547939 111.262037,13.5231954 L111.262037,36.8874901 C111.262037,38.9370793 111.262037,40.1652977 111.671416,41.3947954 C112.080795,43.0336992 112.900832,44.263197 114.130248,45.4926947 C115.359665,47.1315985 116.998459,47.9516901 119.047913,48.7705023 C121.097367,49.5905939 123.556199,50 126.425689,50 C130.113937,50 132.983427,49.5905939 135.442259,48.3610962 C137.465852,47.1574439 139.156351,45.4668333 140.359924,43.4431053 C141.179961,41.393516 141.999999,39.3452061 141.999999,36.8862107 L141.999999,13.521916 C142.001277,10.2441084 141.179961,7.78511297 140.361203,5.73680305 Z M94.8433841,8.08704998 C95.252763,8.90714158 95.6634212,10.1366393 95.6634212,12.1849492 L95.6634212,35.5492439 C95.6634212,37.1881477 95.2540424,38.8270515 94.4340052,39.6471432 C93.6114094,40.4672347 92.7926515,40.8766409 91.5632355,40.8766409 L89.5137822,40.8766409 L89.5137822,6.85755226 L91.5632355,6.85755226 C92.7926515,6.85755226 94.0220676,7.26695837 94.8433841,8.08704998 Z M100.950806,47.1827742 C103.409638,46.3626826 105.048433,44.7237788 106.687228,42.6754689 C107.916644,40.6258796 108.736681,38.1681636 108.736681,35.7091682 L108.736681,13.1649651 C108.736681,11.1153758 108.327302,9.47647195 107.916644,7.83756813 C107.507265,6.60807041 107.096607,5.78797882 106.687228,5.37857271 C105.867191,4.149075 105.048433,3.32898339 103.819017,2.91957729 C102.589601,2.09948568 101.360185,1.28067348 99.7213899,1.28067348 C98.4919737,0.871267367 96.4437997,0.460581868 94.3917879,0.460581868 L78,0.460581868 L78,48.412272 L94.3905086,48.412272 C96.4425205,48.412272 98.9013527,48.0028659 100.950806,47.1827742 Z" id="Shape"></path>
            </g>
            <path d="M166,38.9404375 L166,35.4416939 C167.463318,35.4526964 168.437015,35.2326518 168.921121,34.7815537 C169.405226,34.3304556 169.647276,33.4007673 169.647276,31.992461 L169.647276,11 L174.631335,11 L174.614831,32.1079856 C174.603828,33.3072464 174.502057,34.3167008 174.309516,35.1363791 C174.116974,35.9560573 173.786907,36.6602 173.319305,37.248828 C172.851704,37.8374561 172.213574,38.2665429 171.404898,38.5361015 C170.596223,38.8056601 169.592269,38.9404375 168.393009,38.9404375 L166,38.9404375 Z M181.494593,38.6598778 C180.38335,38.6598778 179.571937,38.2527954 179.060326,37.4386182 C178.548715,36.6244412 178.292912,35.6232385 178.292912,34.43498 L178.292912,18.8226624 L182.897391,18.8226624 L182.897391,33.4942801 C182.897391,34.0994117 182.99091,34.5505031 183.177951,34.8475677 C183.364991,35.1446323 183.711561,35.2876612 184.217671,35.2766589 C184.756789,35.2766589 185.416922,35.0016031 186.198092,34.4514836 L186.198092,18.8226624 L190.802571,18.8226624 L190.802571,38.3628147 L186.198092,38.3628147 L186.198092,36.5309255 C184.646755,37.9502341 183.078937,38.6598778 181.494593,38.6598778 Z M199.398697,38.6763814 C197.781346,38.6763814 196.455577,38.22529 195.421351,37.3230938 C194.387127,36.4208975 193.677484,35.1226346 193.292399,33.4282661 L196.791143,32.157496 C197.033196,33.2357306 197.374265,34.052646 197.81436,34.6082669 C198.254456,35.1638877 198.804568,35.4306917 199.464712,35.4086869 C199.948816,35.3976846 200.347648,35.2243994 200.661215,34.8888265 C200.974783,34.5532535 201.120564,34.1434205 201.098558,33.6593152 C201.054549,32.9551621 200.410918,32.0694827 199.167648,31.0022505 L196.54359,28.7577737 C194.651179,27.1294195 193.726991,25.4295753 193.771001,23.65819 C193.804008,22.0958501 194.334866,20.8498478 195.36359,19.9201456 C196.392313,18.9904434 197.704329,18.5255993 199.299676,18.5255993 C200.829009,18.5255993 202.07226,18.9876928 203.029469,19.9118938 C203.986677,20.8360948 204.608303,22.0738455 204.894365,23.625183 L201.857719,24.895953 C201.439629,22.8715126 200.658471,21.8538065 199.514221,21.8428042 C199.030117,21.8318017 198.642288,21.9803319 198.350724,22.2883988 C198.059161,22.5964659 197.913381,22.9650405 197.913381,23.3941338 C197.902379,23.9882631 198.446989,24.7639201 199.547229,25.7211283 L202.220797,28.1471439 C202.671895,28.54323 203.04597,28.8980518 203.343035,29.2116201 C203.640101,29.5251883 203.950913,29.9075157 204.275483,30.3586138 C204.600054,30.8097119 204.842103,31.29381 205.001638,31.8109224 C205.161172,32.3280349 205.240938,32.8836474 205.240938,33.4777767 C205.240938,35.1281356 204.693578,36.4071446 203.59884,37.314842 C202.504102,38.2225395 201.104069,38.6763814 199.398697,38.6763814 Z M213.143918,38.6268708 C212.252724,38.6158684 211.496321,38.4673383 210.874686,38.1812761 C210.25305,37.8952138 209.774454,37.4853809 209.438881,36.9517648 C209.103308,36.4181488 208.861258,35.821278 208.712726,35.1611343 C208.564194,34.5009907 208.489929,33.7308348 208.489929,32.8506433 L208.489929,21.8758112 L206.559019,21.8758112 L206.559019,18.8226624 L208.489929,18.8226624 L208.489929,13.0794419 L213.127414,13.0794419 L213.127414,18.8226624 L216.098046,18.8226624 L216.098046,21.8758112 L213.127414,21.8758112 L213.127414,33.1477064 C213.127414,33.7858453 213.267693,34.2451883 213.548254,34.5257493 C213.828815,34.8063103 214.277155,34.9520899 214.89329,34.9630922 C215.322383,34.9740947 215.789978,34.9410879 216.296088,34.8640712 L216.296088,38.3958217 C214.986803,38.57186 213.93609,38.6488756 213.143918,38.6268708 Z M219.03347,15.7365066 L219.03347,11.8416789 L223.670955,11.8416789 L223.670955,15.7365066 L219.03347,15.7365066 Z M219.03347,38.3628147 L219.03347,18.8226624 L223.654452,18.8226624 L223.654452,38.3628147 L219.03347,38.3628147 Z M233.10876,38.6763814 C230.89728,38.6763814 229.307457,38.0547554 228.339247,36.811485 C227.371037,35.5682146 226.886938,33.7693503 226.886938,31.4148382 L226.886938,25.7541353 C226.886938,23.3996232 227.371037,21.60626 228.339247,20.3739921 C229.307457,19.141724 230.89728,18.5255993 233.10876,18.5255993 C235.188213,18.5255993 236.698268,19.0151984 237.638973,19.9944114 C238.579678,20.9736244 239.050024,22.4919318 239.050024,24.5493793 L239.050024,26.133716 L234.742608,26.133716 L234.742608,24.4668617 C234.742608,23.4766464 234.624334,22.7862566 234.387782,22.3956716 C234.151231,22.0050867 233.741398,21.8097972 233.158271,21.8097972 C232.50913,21.8097972 232.071791,22.040844 231.846242,22.5029444 C231.620693,22.9650449 231.50792,23.8232188 231.50792,25.0774915 L231.50792,32.2070066 C231.50792,33.450277 231.631695,34.2891969 231.87925,34.7237913 C232.126803,35.1583859 232.553139,35.3756799 233.158271,35.3756799 C233.774405,35.3756799 234.19249,35.163887 234.412538,34.7402949 C234.632586,34.3167028 234.742608,33.675823 234.742608,32.8176363 L234.742608,30.721691 L239.050024,30.721691 L239.050024,32.5700838 C239.050024,34.594524 238.568676,36.1183327 237.605966,37.1415551 C236.643257,38.1647777 235.144203,38.6763814 233.10876,38.6763814 Z M246.276359,26.5132966 L249.610067,26.5132966 L249.610067,24.6484004 C249.610067,23.6581849 249.486292,22.9485413 249.238738,22.519448 C248.991185,22.0903546 248.553846,21.8758112 247.92671,21.8758112 C247.288571,21.8758112 246.853982,22.1178602 246.622932,22.6019655 C246.391882,23.0860707 246.276359,23.966249 246.276359,25.2425266 L246.276359,26.5132966 Z M247.97622,38.6763814 C245.742734,38.6763814 244.136409,38.0602565 243.157195,36.8279886 C242.177983,35.5957205 241.688383,33.7748518 241.688383,31.3653278 L241.688383,25.8366529 C241.688383,23.4271288 242.183484,21.60626 243.1737,20.3739921 C244.163915,19.141724 245.759238,18.5255993 247.959717,18.5255993 C249.12597,18.5255993 250.107919,18.6961337 250.905593,19.0372079 C251.703266,19.3782821 252.324892,19.8953869 252.770488,20.5885376 C253.216086,21.2816884 253.5324,22.0821005 253.71944,22.989798 C253.906481,23.8974953 254,24.9894664 254,26.2657441 L254,28.8237877 L246.276359,28.8237877 L246.276359,31.7614119 C246.276359,32.1685004 246.279109,32.4848145 246.284611,32.7103636 C246.290112,32.9359126 246.309366,33.2082177 246.342373,33.5272871 C246.37538,33.8463565 246.42764,34.0939066 246.499156,34.2699449 C246.570672,34.4459833 246.666941,34.6247694 246.787968,34.8063089 C246.908993,34.9878484 247.068527,35.1171246 247.266569,35.1941413 C247.464612,35.2711581 247.695659,35.3096659 247.959717,35.3096659 C248.57585,35.3096659 249.004938,35.0923719 249.24699,34.6577773 C249.489042,34.2231828 249.610067,33.5933053 249.610067,32.7681258 L249.610067,31.6458873 L253.983497,31.6458873 L253.983497,32.4215522 C253.983497,34.4459925 253.480144,35.9945561 252.473426,37.0672894 C251.466707,38.1400227 249.967653,38.6763814 247.97622,38.6763814 Z" id="Justice"></path>
        </g>
    </g>
</svg>